<svg width="33" height="33" viewBox="0 0 33 33" fill="none" xmlns="http://www.w3.org/2000/svg">
<path opacity="0.1" fill-rule="evenodd" clip-rule="evenodd" d="M0 16.5C0 7.3873 7.3873 0 16.5 0C25.6127 0 33 7.3873 33 16.5C33 25.6127 25.6127 33 16.5 33C7.3873 33 0 25.6127 0 16.5Z" fill="white"/>
<path fill-rule="evenodd" clip-rule="evenodd" d="M16.501 7.7002C14.1111 7.7002 13.8111 7.71065 12.8724 7.75336C11.9356 7.79626 11.2961 7.94458 10.7366 8.1622C10.1578 8.38697 9.66683 8.68764 9.17769 9.17696C8.68819 9.6661 8.38752 10.1571 8.16202 10.7357C7.94385 11.2954 7.79535 11.9351 7.75318 12.8715C7.7112 13.8102 7.7002 14.1103 7.7002 16.5003C7.7002 18.8902 7.71083 19.1893 7.75336 20.1279C7.79645 21.0648 7.94476 21.7043 8.1622 22.2638C8.38715 22.8426 8.68782 23.3336 9.17714 23.8227C9.6661 24.3122 10.1571 24.6136 10.7355 24.8384C11.2954 25.056 11.9351 25.2043 12.8717 25.2472C13.8104 25.2899 14.1101 25.3004 16.4999 25.3004C18.8901 25.3004 19.1891 25.2899 20.1278 25.2472C21.0646 25.2043 21.7048 25.056 22.2647 24.8384C22.8433 24.6136 23.3336 24.3122 23.8225 23.8227C24.312 23.3336 24.6127 22.8426 24.8382 22.264C25.0545 21.7043 25.203 21.0646 25.247 20.1281C25.2892 19.1894 25.3002 18.8902 25.3002 16.5003C25.3002 14.1103 25.2892 13.8104 25.247 12.8717C25.203 11.9349 25.0545 11.2954 24.8382 10.7359C24.6127 10.1571 24.312 9.6661 23.8225 9.17696C23.333 8.68746 22.8435 8.38679 22.2642 8.1622C21.7032 7.94458 21.0633 7.79626 20.1265 7.75336C19.1878 7.71065 18.889 7.7002 16.4983 7.7002H16.501ZM15.7115 9.28602C15.9458 9.28565 16.2073 9.28602 16.501 9.28602C18.8506 9.28602 19.1291 9.29445 20.057 9.33662C20.915 9.37585 21.3806 9.51922 21.6908 9.63967C22.1015 9.79918 22.3943 9.98984 22.7021 10.2978C23.0101 10.6059 23.2008 10.8992 23.3607 11.3099C23.4811 11.6197 23.6247 12.0854 23.6637 12.9434C23.7059 13.8711 23.715 14.1497 23.715 16.4982C23.715 18.8468 23.7059 19.1254 23.6637 20.0531C23.6245 20.9111 23.4811 21.3768 23.3607 21.6866C23.2012 22.0973 23.0101 22.3897 22.7021 22.6975C22.3941 23.0055 22.1017 23.1962 21.6908 23.3557C21.381 23.4767 20.915 23.6197 20.057 23.659C19.1293 23.7011 18.8506 23.7103 16.501 23.7103C14.1512 23.7103 13.8727 23.7011 12.945 23.659C12.087 23.6194 11.6213 23.476 11.3109 23.3555C10.9003 23.196 10.6069 23.0054 10.2989 22.6974C9.99093 22.3894 9.80026 22.0968 9.64039 21.6859C9.51994 21.3761 9.37639 20.9104 9.33734 20.0524C9.29517 19.1247 9.28674 18.846 9.28674 16.496C9.28674 14.1461 9.29517 13.8689 9.33734 12.9412C9.37658 12.0832 9.51994 11.6175 9.64039 11.3073C9.7999 10.8966 9.99093 10.6033 10.2989 10.2953C10.6069 9.98728 10.9003 9.79661 11.3109 9.63674C11.6211 9.51574 12.087 9.37274 12.945 9.33332C13.7568 9.29665 14.0714 9.28565 15.7115 9.28382V9.28602ZM21.1984 10.7472C20.6154 10.7472 20.1424 11.2197 20.1424 11.8029C20.1424 12.3859 20.6154 12.8589 21.1984 12.8589C21.7814 12.8589 22.2544 12.3859 22.2544 11.8029C22.2544 11.2198 21.7814 10.7472 21.1984 10.7472ZM16.501 11.981C14.0053 11.981 11.9818 14.0045 11.9818 16.5003C11.9818 18.996 14.0053 21.0186 16.501 21.0186C18.9968 21.0186 21.0195 18.996 21.0195 16.5003C21.0195 14.0045 18.9968 11.981 16.501 11.981ZM16.501 13.5669C18.121 13.5669 19.4344 14.8801 19.4344 16.5003C19.4344 18.1202 18.121 19.4336 16.501 19.4336C14.8809 19.4336 13.5676 18.1202 13.5676 16.5003C13.5676 14.8801 14.8809 13.5669 16.501 13.5669Z" fill="white"/>
</svg>
