<svg width="33" height="33" viewBox="0 0 33 33" fill="none" xmlns="http://www.w3.org/2000/svg">
<path opacity="0.1" fill-rule="evenodd" clip-rule="evenodd" d="M0 16.5C0 7.3873 7.3873 0 16.5 0C25.6127 0 33 7.3873 33 16.5C33 25.6127 25.6127 33 16.5 33C7.3873 33 0 25.6127 0 16.5Z" fill="white"/>
<path fill-rule="evenodd" clip-rule="evenodd" d="M14.5375 14.1327H17.8058V15.7607C18.2766 14.8244 19.484 13.9831 21.2977 13.9831C24.7746 13.9831 25.6 15.847 25.6 19.2666V25.6H22.08V20.0454C22.08 18.098 21.6092 16.9998 20.4106 16.9998C18.7483 16.9998 18.0575 18.1834 18.0575 20.0446V25.6H14.5375V14.1327V14.1327ZM8.5016 25.4504H12.0216V13.9831H8.5016V25.4504V25.4504ZM12.5258 10.244C12.526 10.539 12.4675 10.8312 12.3537 11.1034C12.2399 11.3756 12.0732 11.6225 11.8632 11.8298C11.4376 12.2527 10.8616 12.4895 10.2616 12.488C9.66266 12.4876 9.08795 12.2515 8.66176 11.8306C8.45251 11.6227 8.28634 11.3755 8.17278 11.1033C8.05923 10.831 8.00051 10.539 8 10.244C8 9.64824 8.2376 9.078 8.66264 8.65736C9.08846 8.23598 9.66341 7.99974 10.2625 8C10.8626 8 11.4382 8.23672 11.8632 8.65736C12.2874 9.078 12.5258 9.64824 12.5258 10.244Z" fill="white"/>
</svg>
